<?xml version="1.0" standalone="no"?>
<!DOCTYPE svg PUBLIC "-//W3C//DTD SVG 20010904//EN"
 "http://www.w3.org/TR/2001/REC-SVG-20010904/DTD/svg10.dtd">
<svg version="1.0" xmlns="http://www.w3.org/2000/svg"
 width="1024.000000pt" height="1024.000000pt" viewBox="0 0 1024.000000 1024.000000"
 preserveAspectRatio="xMidYMid meet">
<metadata>
Created by potrace 1.14, written by Peter Selinger 2001-2017
</metadata>
<g transform="translate(0.000000,1024.000000) scale(0.100000,-0.100000)"
fill="#000000" stroke="none">
<path d="M0 5120 l0 -5120 5120 0 5120 0 0 5120 0 5120 -5120 0 -5120 0 0
-5120z m5386 4235 c298 -22 496 -76 754 -204 214 -107 451 -269 610 -418 103
-96 278 -304 369 -438 102 -150 264 -433 257 -450 -3 -10 9 -30 32 -53 27 -27
45 -60 64 -117 15 -44 42 -118 62 -165 46 -113 72 -216 97 -387 20 -135 21
-210 4 -155 -9 26 -14 27 -40 8 -14 -10 -26 -11 -47 -4 -41 15 -55 5 -63 -44
-5 -36 -22 -94 -31 -106 -4 -6 -74 27 -75 35 -1 4 -3 17 -4 28 -2 19 -106 278
-128 319 -8 17 -15 9 -52 -65 -23 -46 -46 -98 -49 -116 -7 -31 -10 -32 -109
-56 l-102 -24 -3 -54 c-4 -62 -23 -89 -63 -89 -40 0 -75 -18 -90 -46 -11 -22
-10 -31 15 -79 40 -80 25 -109 -79 -145 -32 -11 -77 -31 -100 -45 -35 -20
-257 -247 -356 -364 -30 -35 -61 -33 -86 5 -19 29 -18 30 68 181 42 73 67 128
63 137 -3 9 -8 16 -11 16 -18 0 -151 -150 -161 -180 -6 -19 -18 -60 -26 -91
-18 -64 -33 -81 -126 -142 -76 -49 -104 -92 -101 -151 1 -22 3 -56 4 -75 2
-35 -2 -40 -63 -62 -22 -8 -82 -61 -160 -140 -140 -142 -172 -160 -241 -140
-39 12 -52 37 -24 47 8 3 17 14 20 23 7 22 148 129 180 137 13 3 34 17 47 31
21 23 23 33 23 126 0 90 3 106 23 134 27 39 28 59 1 73 -15 8 -24 8 -34 0 -14
-12 -38 -84 -49 -153 -4 -20 -20 -52 -36 -70 -31 -36 -105 -77 -138 -77 -62 0
-118 189 -137 455 -5 84 -41 380 -52 435 l-5 25 -20 -25 c-17 -21 -19 -34 -15
-78 6 -58 -10 -123 -24 -100 -5 7 -9 83 -9 168 -1 139 -2 152 -15 129 -8 -14
-19 -66 -25 -115 -6 -49 -25 -129 -42 -179 -30 -87 -31 -97 -38 -317 -6 -200
-9 -230 -25 -248 -10 -11 -26 -20 -37 -20 -16 0 -18 -9 -18 -68 0 -89 -13
-107 -69 -99 -68 9 -114 46 -141 114 -28 70 -52 98 -76 89 -15 -6 -16 -15 -9
-69 5 -34 8 -79 7 -99 -1 -30 3 -38 21 -44 12 -4 40 -23 62 -43 22 -20 65 -51
95 -68 58 -34 114 -86 103 -97 -4 -3 -31 -6 -62 -6 -43 0 -67 7 -106 29 -73
42 -193 149 -280 248 -96 110 -281 353 -310 407 -27 50 -61 64 -51 19 9 -42
143 -304 205 -402 29 -48 62 -105 72 -129 10 -23 34 -63 54 -89 19 -25 35 -52
35 -59 0 -21 -38 -40 -115 -58 -90 -22 -128 -51 -145 -110 -7 -25 -18 -46 -25
-46 -6 0 -30 17 -52 38 -45 43 -90 59 -220 77 -51 7 -111 22 -134 33 l-40 20
15 -22 c8 -12 33 -49 56 -82 32 -46 38 -60 26 -62 -21 -4 -21 -3 14 -72 16
-33 30 -66 30 -73 0 -8 7 -20 15 -27 42 -34 -3 -60 -48 -28 -69 48 -570 531
-717 691 -64 70 -119 122 -124 117 -12 -12 26 -70 63 -98 17 -12 31 -29 31
-37 0 -8 -2 -15 -4 -15 -2 0 -42 18 -90 40 -47 22 -92 40 -100 40 -14 0 -139
-78 -144 -90 -1 -4 -8 -15 -15 -24 -12 -16 -15 -16 -40 5 -22 17 -27 27 -22
48 4 19 -4 46 -29 94 -20 37 -38 90 -42 117 -6 43 -10 51 -32 57 -19 4 -30 0
-44 -17 -16 -20 -19 -39 -17 -124 2 -107 -4 -144 -29 -188 -15 -25 -13 -29 54
-136 53 -85 76 -113 100 -123 22 -8 38 -25 50 -51 l17 -39 -39 -40 c-21 -22
-76 -59 -120 -81 l-82 -40 9 -32 c5 -17 19 -67 31 -111 11 -44 30 -98 41 -120
24 -48 144 -177 246 -266 125 -108 139 -123 56 -59 -44 34 -102 77 -130 95
-45 29 -98 83 -139 140 -12 16 -17 17 -27 8 -10 -10 -10 -18 0 -40 24 -50 59
-193 50 -199 -12 -7 -11 -64 1 -64 6 0 10 -20 10 -44 0 -24 5 -46 11 -48 6 -2
24 -82 39 -178 16 -96 35 -193 43 -215 8 -22 20 -70 27 -108 14 -77 25 -90 41
-50 l12 28 13 -45 c7 -25 29 -108 50 -185 27 -102 54 -174 98 -262 38 -76 63
-118 68 -110 17 27 5 106 -42 274 -74 260 -108 453 -81 453 12 0 16 -14 31
-105 19 -111 168 -624 200 -688 l29 -58 3 43 4 43 27 -55 c31 -63 33 -80 12
-80 -21 0 -20 -3 24 -78 180 -312 211 -370 211 -388 0 -8 8 -22 18 -32 31 -31
52 -66 52 -86 0 -18 -3 -17 -30 9 -16 16 -30 34 -30 39 0 6 -11 21 -24 34 -13
12 -61 75 -107 140 -45 64 -85 119 -88 122 -3 3 -15 23 -26 45 -11 22 -25 40
-31 40 -25 0 -264 358 -264 394 0 6 -4 11 -9 11 -5 0 -13 9 -16 20 -4 11 -24
49 -45 84 -44 72 -119 242 -157 355 -28 84 -69 274 -79 365 -4 34 -9 65 -12
70 -3 5 -7 85 -9 178 -3 167 -4 172 -45 301 -23 73 -58 166 -79 207 -39 78
-54 123 -70 225 -10 56 -5 194 7 247 4 13 10 59 14 103 5 44 16 114 24 155 8
41 15 121 16 176 0 63 8 139 21 200 11 55 27 137 34 184 8 47 21 126 30 175
15 86 38 299 51 470 14 187 42 340 85 462 37 104 259 561 331 681 132 221 310
462 433 587 75 76 286 244 314 250 9 1 57 30 106 63 144 96 387 216 547 272
324 111 534 135 934 105z m2174 -2585 c25 -14 46 -54 55 -107 8 -49 19 -54 38
-17 13 25 14 23 20 -44 9 -87 29 -178 50 -218 23 -45 46 -167 53 -291 l7 -110
-24 1 c-18 1 -25 -5 -27 -22 -2 -13 -10 -26 -18 -29 -8 -3 -14 -18 -14 -34 0
-22 -5 -29 -19 -29 -14 0 -27 20 -51 75 -18 41 -39 76 -46 79 -7 3 -24 -4 -39
-16 -24 -19 -27 -19 -45 -3 -10 9 -31 34 -46 56 -15 21 -34 39 -44 39 -9 0
-34 -13 -56 -30 -30 -23 -46 -28 -69 -24 -22 4 -48 -3 -91 -25 -49 -24 -66
-39 -82 -71 -16 -34 -17 -39 -4 -27 18 16 160 53 168 44 9 -8 -136 -180 -167
-199 -16 -10 -29 -22 -29 -28 0 -5 -12 -16 -27 -24 -16 -8 -72 -66 -126 -129
-81 -95 -177 -190 -313 -309 -20 -18 -21 -17 -54 28 l-33 46 -183 -183 c-101
-101 -184 -177 -184 -169 0 10 -8 5 -23 -12 -24 -29 -94 -52 -199 -64 -71 -8
-103 0 -124 31 -14 21 -14 33 -3 95 7 39 17 75 24 80 6 5 47 18 91 28 l81 19
16 -29 c17 -30 47 -38 47 -12 0 9 -13 32 -30 51 -16 18 -30 41 -30 50 0 8 -18
49 -41 90 -29 53 -39 81 -35 98 3 13 33 44 66 70 68 53 111 128 134 235 20 96
49 146 141 235 45 44 97 106 115 138 17 31 38 57 46 57 8 0 60 36 116 80 96
75 108 81 193 101 52 13 124 22 170 22 76 1 85 -2 185 -50 58 -28 107 -49 109
-47 2 2 -17 29 -43 60 -25 31 -44 60 -40 63 3 3 16 -7 28 -24 58 -80 100 -101
144 -68 56 42 172 304 172 390 0 16 4 33 9 39 5 5 19 38 32 74 l24 65 3 -42
c2 -30 9 -46 22 -53z m97 28 c-3 -7 -5 -2 -5 12 0 14 2 19 5 13 2 -7 2 -19 0
-25z m-2467 -573 c22 -26 24 -177 5 -250 -10 -36 -21 -65 -26 -65 -4 0 -22 12
-39 27 -34 29 -34 22 -12 148 6 33 14 81 17 108 5 37 10 47 24 47 10 0 24 -7
31 -15z m2672 -51 c13 -12 32 -25 43 -29 18 -8 17 -9 -9 -13 -20 -2 -36 4 -56
23 -20 19 -30 23 -35 15 -6 -9 -10 -9 -16 1 -14 23 -11 27 20 25 16 -1 40 -11
53 -22z m-2626 -356 c-5 -158 -9 -377 -7 -470 1 -55 17 -46 25 13 10 77 30 58
27 -27 -1 -38 -3 -76 -4 -84 -1 -8 4 -46 12 -83 7 -37 11 -70 9 -73 -12 -11
-39 10 -43 35 -9 47 -23 95 -44 151 -24 66 -27 184 -9 422 8 117 9 164 0 182
-9 20 -8 33 6 65 9 23 21 41 26 41 5 0 6 -73 2 -172z m881 126 c17 -46 -61
-164 -109 -164 -41 0 -53 22 -38 75 10 36 22 51 58 75 50 33 80 38 89 14z
m-2854 -288 c27 -32 59 -76 55 -76 -2 0 -28 25 -58 56 -32 31 -46 52 -35 48
11 -4 28 -16 38 -28z m4557 -98 c0 -36 4 -48 15 -48 13 0 15 -23 15 -144 0
-86 -4 -147 -10 -151 -5 -3 -10 1 -10 9 0 19 5 20 -60 -3 -30 -10 -82 -22
-115 -26 -59 -7 -60 -7 -42 12 22 25 22 45 -2 91 -42 83 -38 156 9 166 19 3
56 34 106 86 85 88 94 89 94 8z m-1970 -96 c0 -10 -15 -33 -33 -51 -19 -17
-45 -53 -58 -79 -23 -44 -24 -57 -24 -227 -1 -203 -8 -233 -61 -266 -19 -11
-42 -31 -52 -44 l-19 -24 -46 42 c-72 66 -89 161 -42 231 31 46 25 46 -20 0
-30 -30 -38 -34 -51 -23 -19 15 -13 54 17 116 17 35 28 45 62 55 53 16 93 57
141 146 46 83 70 109 123 127 51 19 63 18 63 -3z m1640 -277 c10 -12 10 -19 1
-28 -9 -9 -14 -9 -21 3 -22 34 -4 54 20 25z m-2272 -127 c34 -48 78 -120 98
-160 22 -45 59 -96 96 -134 53 -55 58 -63 42 -72 -14 -8 -32 0 -85 37 -38 25
-71 54 -75 64 -5 17 -16 19 -95 15 -71 -2 -88 0 -84 10 3 7 -2 27 -11 45 l-17
31 -23 -47 c-23 -44 -46 -59 -59 -37 -6 9 42 90 54 90 34 2 56 64 76 208 4 30
10 50 15 45 4 -4 35 -47 68 -95z m-585 29 c23 -23 52 -50 64 -58 27 -19 43
-79 22 -79 -14 0 -179 159 -179 172 0 5 12 8 26 8 17 0 40 -14 67 -43z m3374
-279 c-3 -7 -5 -2 -5 12 0 14 2 19 5 13 2 -7 2 -19 0 -25z m-2723 -117 c55
-49 77 -62 134 -76 72 -19 126 -58 157 -112 8 -16 25 -40 37 -55 20 -25 21
-32 10 -79 -23 -99 -14 -128 56 -177 48 -35 53 -51 31 -99 -21 -45 -24 -80
-14 -135 7 -37 -5 -53 -21 -27 -10 16 -44 -41 -44 -73 0 -20 -5 -28 -17 -28
-31 0 -107 31 -129 51 -46 43 -253 66 -439 49 -104 -9 -149 -19 -225 -47 -52
-19 -96 -39 -98 -44 -2 -5 -19 -9 -37 -9 -36 0 -70 -27 -80 -64 -13 -45 -39
-96 -49 -96 -26 -1 -38 -21 -61 -106 -16 -59 -25 -115 -25 -166 0 -74 2 -80
35 -124 53 -69 54 -84 6 -165 -32 -55 -38 -75 -31 -89 21 -38 4 -41 -38 -5
-60 51 -166 51 -243 1 -45 -30 -71 -20 -63 23 5 23 0 36 -26 62 -18 19 -39 47
-47 63 -14 26 -13 30 1 38 25 14 56 83 56 123 0 67 -47 125 -101 125 -30 0
-139 -47 -139 -60 0 -13 23 -28 55 -36 53 -12 71 -37 36 -49 -27 -8 -94 27
-140 75 -45 47 -157 203 -226 315 -27 44 -61 96 -76 116 -30 38 -53 89 -41 89
4 0 18 -9 32 -20 17 -13 28 -16 37 -9 8 8 30 -7 75 -50 43 -41 71 -61 89 -61
48 0 79 -22 89 -65 18 -70 28 -83 82 -114 l53 -31 17 23 c28 35 22 58 -32 124
l-50 62 22 15 c30 22 56 20 98 -6 19 -12 61 -36 94 -55 l59 -33 -25 32 c-55
74 -28 64 41 -14 27 -31 38 -37 58 -32 20 5 32 -2 69 -40 24 -25 44 -43 44
-39 0 5 -12 43 -25 87 -14 43 -24 80 -22 82 1 2 25 -3 51 -11 64 -20 90 -7 80
38 -12 55 -21 71 -68 117 -33 31 -46 52 -46 72 0 23 -6 29 -32 36 -23 6 -34
15 -36 30 -4 26 5 27 90 7 96 -22 155 -22 171 -1 8 11 23 16 42 14 21 -2 30 1
30 12 0 11 -16 16 -66 20 -94 7 -128 40 -57 54 18 4 58 24 89 46 30 21 89 52
130 68 l74 30 -4 92 -3 91 47 45 c31 28 57 44 74 44 14 0 44 14 65 30 22 17
46 30 53 30 7 0 13 6 13 14 0 8 17 28 38 45 35 27 40 28 54 15 14 -14 17 -12
36 20 19 31 26 36 60 36 33 0 49 -9 106 -59z m1526 -208 c-6 -10 -19 -31 -29
-48 -14 -23 -25 -30 -47 -28 -35 3 -94 33 -94 48 0 24 22 34 47 22 19 -8 27
-7 41 6 9 10 32 17 54 17 34 0 37 -2 28 -17z m-2116 -85 c10 -38 7 -65 -9 -78
-12 -10 -17 -7 -26 14 -13 27 -24 33 -34 16 -13 -21 -25 -9 -25 26 0 35 1 36
30 32 17 -3 33 -1 36 4 9 15 22 8 28 -14z m2076 -59 c0 -5 -7 -9 -15 -9 -8 0
-15 7 -15 15 0 9 6 12 15 9 8 -4 15 -10 15 -15z m1000 11 c0 -5 -5 -10 -11
-10 -5 0 -7 5 -4 10 3 6 8 10 11 10 2 0 4 -4 4 -10z m185 -170 c-3 -5 -11 -10
-16 -10 -6 0 -7 5 -4 10 3 6 11 10 16 10 6 0 7 -4 4 -10z m-4527 -48 c15 -16
39 -35 53 -44 17 -11 30 -33 39 -65 9 -31 26 -59 49 -81 l36 -33 -45 20 c-25
12 -60 21 -78 21 -27 0 -45 12 -96 63 -93 91 -98 146 -13 147 18 0 38 -10 55
-28z m2431 9 c23 -6 23 -7 7 -24 -32 -31 -86 -17 -72 18 6 16 25 17 65 6z
m236 -92 c35 -21 46 -21 117 -4 19 5 35 1 58 -15 32 -23 32 -40 -1 -40 -10 0
-28 -9 -39 -20 -11 -11 -31 -19 -47 -17 -15 0 -40 -2 -54 -6 -21 -5 -32 0 -62
31 -19 20 -39 49 -42 65 -6 23 -4 27 13 27 12 0 37 -9 57 -21z m-237 -55 c-2
-38 -9 -51 -30 -67 -15 -12 -31 -18 -34 -14 -8 8 14 97 28 114 24 29 39 14 36
-33z m-2713 -73 c-2 -2 -11 -1 -20 2 -9 4 -15 19 -15 39 l1 33 19 -35 c10 -19
17 -37 15 -39z m1128 37 c21 -11 22 -37 2 -44 -17 -7 -98 49 -88 60 8 8 59 -2
86 -16z m2657 2 c-6 -11 -15 -20 -20 -20 -6 0 -10 9 -10 20 0 13 7 20 20 20
18 0 19 -3 10 -20z m-3845 -61 c15 -28 24 -56 22 -62 -4 -12 -39 49 -51 91
-12 38 3 24 29 -29z m3187 -156 c9 -10 20 -35 23 -56 7 -34 10 -38 31 -33 16
4 24 2 24 -6 0 -7 9 -24 20 -38 29 -37 25 -80 -12 -130 -48 -62 -58 -82 -58
-112 0 -17 -8 -31 -19 -38 -28 -14 -41 -12 -35 5 4 9 3 41 -1 73 l-7 57 -17
-32 c-14 -28 -268 -333 -277 -333 -1 0 -23 11 -47 24 -25 13 -59 28 -76 34
l-30 11 29 87 c17 48 30 104 30 124 0 24 7 43 19 54 20 18 41 86 41 134 0 41
32 77 96 107 38 18 62 37 76 62 l21 36 29 -34 c28 -33 28 -34 43 -14 47 61 57
63 97 18z m-3091 -45 c13 -29 37 -65 52 -81 21 -22 27 -35 23 -55 -8 -38 27
-179 52 -205 11 -12 25 -39 32 -59 9 -31 16 -38 37 -38 16 0 27 -7 30 -20 3
-11 35 -42 72 -68 87 -63 96 -69 85 -50 -33 54 -80 108 -95 108 -10 0 -30 17
-46 38 -15 20 -41 50 -58 67 -29 29 -30 30 -7 33 31 5 28 24 -20 124 -41 87
-44 106 -13 95 9 -4 15 -19 15 -37 0 -35 15 -70 30 -70 14 0 12 44 -1 57 -7 7
-9 20 -5 29 6 15 12 10 33 -26 14 -25 35 -70 47 -100 41 -104 65 -142 86 -135
12 4 20 2 20 -5 0 -6 11 -15 23 -19 13 -5 29 -24 36 -43 7 -18 20 -49 28 -69
10 -24 12 -45 7 -60 -11 -35 -5 -60 23 -98 31 -41 94 -70 150 -71 23 0 44 -5
46 -12 4 -10 7 -10 15 0 5 7 16 10 24 7 22 -9 31 10 13 25 -17 14 -20 40 -6
40 15 0 262 -362 328 -481 53 -93 294 -420 363 -492 22 -23 28 -41 33 -94 9
-93 5 -97 -108 -88 -83 6 -92 5 -109 -14 -15 -17 -18 -31 -13 -76 6 -59 3 -63
-31 -39 -26 18 -31 84 -7 104 8 7 15 23 15 35 0 12 -7 28 -15 35 -8 7 -15 27
-15 45 0 38 -14 52 -59 61 -35 7 -52 30 -45 60 2 10 -2 42 -9 69 -10 36 -20
53 -39 62 -29 15 -74 76 -83 116 -8 32 2 34 47 11 40 -20 74 -11 93 26 23 45
19 77 -12 97 -57 35 -83 67 -104 130 -24 74 -54 113 -97 129 -29 11 -33 10
-57 -22 -22 -29 -71 -64 -90 -64 -3 0 -5 17 -6 38 -1 53 -10 76 -44 114 l-30
33 -5 -29 -5 -30 -25 40 c-32 50 -50 90 -50 114 0 30 -43 72 -115 115 -37 21
-81 54 -98 72 -17 18 -35 33 -39 33 -22 0 4 -43 127 -215 74 -103 135 -193
135 -200 0 -6 12 -27 26 -46 38 -50 124 -198 124 -212 0 -7 6 -24 14 -39 10
-18 12 -38 7 -60 -11 -46 -2 -65 61 -130 29 -31 60 -69 68 -85 8 -15 33 -53
56 -83 23 -30 56 -91 75 -135 18 -44 37 -86 43 -93 5 -7 19 -35 32 -62 13 -28
27 -50 32 -50 5 0 12 -13 15 -28 4 -21 27 -43 87 -86 44 -32 88 -59 98 -60 26
-2 17 54 -14 79 -23 20 -51 85 -36 85 4 0 16 -7 27 -16 30 -22 91 -36 131 -28
23 4 53 22 80 49 42 39 44 45 44 97 l0 56 76 42 c97 53 150 66 301 75 121 7
123 7 196 -23 122 -51 330 -123 360 -124 33 -1 77 36 77 66 0 12 13 72 29 135
29 111 31 114 84 165 37 35 66 77 93 131 21 44 47 86 57 93 17 13 66 98 78
137 9 29 278 411 358 510 l69 83 31 -71 32 -72 29 50 c16 28 34 73 41 100 9
38 23 62 62 103 28 28 57 52 64 52 17 0 29 27 37 83 6 39 12 50 33 58 46 17
57 -5 45 -92 -5 -43 -6 -81 -1 -91 8 -15 14 -11 48 25 34 36 41 39 55 28 26
-22 19 -62 -28 -162 -35 -75 -45 -89 -50 -72 -4 12 -14 27 -23 34 -13 11 -21
7 -53 -31 -35 -41 -41 -44 -95 -47 -104 -6 -146 -45 -240 -217 -21 -38 -57
-87 -80 -110 -24 -22 -52 -57 -62 -76 -11 -18 -32 -41 -49 -50 -23 -13 -30
-26 -35 -58 -3 -23 -13 -50 -22 -60 -41 -45 1 -79 53 -42 50 36 57 17 12 -32
-23 -25 -42 -50 -42 -55 0 -17 -33 -39 -77 -51 -25 -8 -53 -26 -73 -49 l-33
-37 7 -115 c6 -114 6 -117 -23 -173 -47 -92 -88 -135 -160 -170 -94 -45 -121
-66 -137 -105 -19 -43 -7 -88 41 -163 49 -76 47 -110 -9 -178 -40 -49 -107
-98 -181 -130 -16 -8 -43 -20 -58 -28 -16 -8 -46 -14 -67 -14 -21 0 -40 -3
-42 -7 -9 -21 -74 -55 -111 -59 -23 -2 -67 -10 -97 -19 -48 -13 -66 -13 -155
0 -98 15 -121 21 -180 53 -89 46 -108 54 -137 56 -27 1 -34 -3 -36 -21 -3 -18
-10 -23 -33 -23 -17 0 -39 5 -50 11 -15 7 -24 7 -35 -1 -11 -10 -19 -9 -36 2
-39 26 -88 80 -133 148 -52 78 -245 450 -245 473 0 8 -34 84 -75 168 -63 129
-92 175 -182 288 -60 74 -143 173 -186 220 -159 174 -326 446 -408 666 -18 50
-36 92 -39 95 -3 3 -5 16 -6 30 -4 87 -30 196 -82 345 -32 94 -63 178 -67 188
-4 9 -3 17 2 17 5 0 20 -23 34 -52z m3369 -318 c-44 -38 -60 -45 -63 -25 -2 9
89 65 103 64 3 0 -15 -17 -40 -39z m559 -119 c13 -18 18 -36 14 -46 -12 -33
-77 -84 -105 -85 -32 0 -32 0 -17 55 22 87 32 99 76 104 6 0 21 -12 32 -28z
m-2467 -188 c27 -24 22 -36 -7 -17 -14 9 -25 20 -25 25 0 14 11 11 32 -8z
m-20 -233 c27 -28 56 -45 108 -61 58 -19 74 -29 90 -57 l20 -34 -21 -29 c-17
-25 -26 -29 -48 -24 -15 3 -39 1 -54 -4 -17 -7 -46 -7 -83 -1 -73 12 -142 71
-170 145 -12 31 -28 54 -42 60 -15 7 -22 18 -22 37 0 32 5 33 40 13 39 -22 59
-18 66 13 13 58 14 59 47 19 18 -21 49 -56 69 -77z m1549 -27 c-5 -10 -22 -30
-38 -45 l-28 -26 -28 22 -28 23 53 21 c68 27 82 27 69 5z m-1207 -128 c4 -11
-2 -15 -21 -15 -21 0 -24 2 -13 15 7 8 16 15 20 15 4 0 10 -7 14 -15z m526
-13 c0 -24 -8 -32 -26 -25 -10 4 -11 10 -3 24 12 24 29 25 29 1z m-250 -57
c27 -32 8 -49 -69 -63 -61 -11 -75 -11 -82 0 -16 25 -10 48 14 48 12 1 33 7
47 15 33 19 74 19 90 0z m-855 -78 c-4 -8 -13 -13 -21 -10 -15 5 -19 35 -7 47
11 11 34 -19 28 -37z m1565 17 c-12 -13 -40 -9 -40 6 0 11 22 18 38 12 9 -3
10 -8 2 -18z m-1909 -215 c47 -47 79 -87 77 -96 -4 -23 -115 81 -146 136 -13
22 -21 41 -18 41 3 0 42 -36 87 -81z m508 24 c8 -21 16 -45 19 -53 3 -9 -6 -5
-21 9 -17 16 -27 35 -27 53 0 39 13 35 29 -9z m1255 25 c-31 -54 -69 -97 -77
-89 -11 11 56 101 74 101 6 0 7 -6 3 -12z m-139 -114 c28 -42 2 -51 -29 -9
-25 32 -25 35 -8 35 11 0 27 -12 37 -26z m-197 -66 c7 -7 12 -25 12 -41 0 -22
-7 -31 -33 -42 -63 -26 -87 -29 -87 -10 0 13 6 16 21 12 37 -10 50 2 43 39 -9
49 14 72 44 42z m-1344 -354 c3 -8 2 -12 -4 -9 -6 3 -10 10 -10 16 0 14 7 11
14 -7z"/>
<path d="M6523 7390 c-94 -98 -133 -183 -104 -229 13 -21 53 13 87 74 24 43
69 110 84 125 25 25 30 39 20 64 -5 14 -14 26 -19 26 -5 0 -35 -27 -68 -60z"/>
<path d="M6545 6898 c-14 -13 -38 -45 -53 -73 -15 -27 -39 -55 -54 -62 -38
-19 -89 -113 -60 -113 4 0 22 9 40 20 18 11 43 20 55 20 16 0 46 27 102 90 44
50 82 95 83 101 7 19 -21 39 -54 39 -20 0 -43 -9 -59 -22z"/>
<path d="M3384 6479 c-3 -6 4 -33 16 -60 22 -45 26 -49 60 -49 28 0 41 6 58
29 l21 29 -58 31 c-62 33 -86 38 -97 20z"/>
<path d="M3615 6403 c-16 -15 -14 -19 26 -55 23 -21 45 -38 49 -38 3 0 15 -8
26 -18 10 -10 51 -37 89 -61 39 -24 80 -51 93 -59 21 -14 22 -13 22 14 0 50
-209 234 -267 234 -12 0 -29 -8 -38 -17z"/>
<path d="M4670 5970 c0 -11 4 -20 9 -20 11 0 22 26 14 34 -12 12 -23 5 -23
-14z"/>
<path d="M6515 5615 c-86 -30 -181 -178 -209 -325 -8 -41 -13 -76 -11 -78 10
-10 69 35 123 93 85 91 96 109 82 135 -15 27 -6 38 36 46 40 7 52 25 55 80 4
66 -7 73 -76 49z"/>
<path d="M6206 5191 c-10 -10 -37 -24 -62 -30 -24 -6 -44 -13 -44 -15 0 -2 7
-21 16 -42 l16 -39 32 37 c17 20 42 38 54 40 13 1 32 18 43 36 l21 32 -29 0
c-17 0 -38 -9 -47 -19z"/>
<path d="M4268 3536 c-27 -14 -27 -26 0 -116 16 -56 23 -67 53 -82 54 -26 74
-29 93 -15 17 12 14 20 -33 114 -54 105 -71 120 -113 99z"/>
<path d="M3380 3170 c0 -5 5 -10 10 -10 6 0 10 5 10 10 0 6 -4 10 -10 10 -5 0
-10 -4 -10 -10z"/>
<path d="M3405 3080 c14 -64 55 -180 86 -243 38 -75 188 -325 200 -333 5 -3 9
5 9 18 0 14 6 33 14 43 21 29 -9 81 -89 152 -100 88 -149 173 -156 268 -2 22
-14 55 -28 75 -40 56 -44 58 -36 20z"/>
</g>
</svg>
